<svg xmlns="http://www.w3.org/2000/svg" fill="none" viewBox="0 0 1775 478"><path fill="#E84125" d="m0 372.1 139.7-360h87.9l138.1 360h-95L166.6 69.4h33L93 372.1H0Zm84.8-63V237h198.6v72.1H84.8ZM440.8 94.8c-13.2 0-24.2-4.5-33-13.5s-13.2-20.2-13.2-33.8c0-13.6 4.4-24.4 13.2-33.5 8.8-9.1 19.8-13.7 33-13.7s25.1 4.6 33.8 13.7c8.6 9.1 12.9 20.3 12.9 33.5s-4.3 24.8-12.9 33.8c-8.6 9-19.9 13.5-33.8 13.5Zm-44.2 277.3V123.8h88.9v248.3h-88.9ZM536.8 372.1V123.8h88.4v248.3h-88.4ZM625.2 237l-39.6-33.5c9.8-28.1 22.9-49.3 39.1-63.5 16.3-14.2 37.4-21.3 63.5-21.3s22.1 1.5 30.7 4.6c8.6 3 16 7.8 22.1 14.2l-51.3 68.6c-2.7-3-6.5-5.5-11.4-7.4-4.9-1.9-10.4-2.8-16.5-2.8-11.5 0-20.5 3.5-26.9 10.4-6.4 6.9-9.6 17.2-9.6 30.7h-.1ZM885.7 377.7c-30.1 0-56.3-4.6-78.5-13.7-22.2-9.1-42.4-23.5-60.7-43.2l57.4-57.9c12.5 13.2 25.9 23.3 40.1 30.2 14.2 6.9 30.3 10.4 48.2 10.4 17.9 0 27-2.6 35.3-7.9 8.3-5.2 12.4-12.4 12.4-21.6 0-9.2-3-15.5-9.1-21.1-6.1-5.6-14.1-10.5-24.1-14.7-10-4.2-21-8.3-33-12.2-12-3.9-24-8.6-36.1-14.2-12-5.6-23-12.4-33-20.6-10-8.1-18-18.3-24.1-30.5-6.1-12.2-9.1-27.2-9.1-45.2 0-18 5.5-42.7 16.5-58.9 11-16.3 26.3-28.8 46-37.6 19.6-8.8 42.5-13.2 68.6-13.2 26.1 0 50.1 4.4 72.1 13.2 22 8.8 40.1 21 54.3 36.6L971 113c-10.8-10.8-21.8-19-33-24.4-11.2-5.4-23.4-8.1-36.6-8.1-13.2 0-22.3 2.2-29.5 6.6-7.1 4.4-10.7 10.7-10.7 18.8 0 8.1 3 14.7 9.1 19.8 6.1 5.1 14.1 9.6 24.1 13.5 10 3.9 21 7.9 33 11.9 12 4.1 23.9 8.8 35.8 14.2 11.8 5.4 22.8 12.4 32.8 20.8 10 8.5 18 19.1 24.1 32 6.1 12.9 9.1 28.4 9.1 46.7 0 35.9-12.6 63.7-37.8 83.3-25.2 19.6-60.5 29.5-105.9 29.5l.2.1ZM1069.5 372.1V1.9h88.4v370.2h-88.4Zm161 0V231.9c0-11.5-3.4-20.6-10.2-27.2-6.8-6.6-15.4-9.9-25.9-9.9-10.5 0-13.5 1.5-19 4.6-5.5 3.1-9.9 7.3-12.9 12.7-3 5.4-4.6 12-4.6 19.8l-34.5-16.3c0-20 4.1-37.2 12.4-51.5 8.3-14.4 19.7-25.6 34.3-33.5 14.6-8 31.5-11.9 50.8-11.9 19.3 0 37.3 4 52.1 11.9 14.7 8 26.1 18.9 34 32.8 8 13.9 11.9 30 11.9 48.2v160.5h-88.4ZM1409.2 94.8c-13.2 0-24.2-4.5-33-13.5S1363 61.1 1363 47.5c0-13.6 4.4-24.4 13.2-33.5 8.8-9.1 19.8-13.7 33-13.7s25.1 4.6 33.8 13.7c8.7 9.1 13 20.3 13 33.5s-4.3 24.8-13 33.8c-8.6 9-19.9 13.5-33.8 13.5Zm-44.1 277.3V123.8h88.9v248.3h-88.9ZM1505.2 477.2V123.8h88.4v62.5l-14.7 59.9 12.7 60.4v170.6H1505.2Zm147.8-100c-15.9 0-30.6-2.9-44.2-8.6-13.5-5.8-24.7-13.6-33.5-23.6-8.8-10-14.2-21.6-16.2-34.8V189.3c2-13.2 7.5-25.1 16.5-35.8 9-10.7 20.1-19.1 33.5-25.4 13.4-6.3 28-9.4 43.9-9.4 24 0 45.2 5.5 63.5 16.5 18.3 11 32.6 26.3 42.9 46 10.3 19.6 15.5 42 15.5 67s-5.2 46.8-15.5 66.3-24.6 34.8-42.9 46c-18.3 11.2-39.4 16.8-63.5 16.8v-.1Zm-16.8-78.7c9.8 0 18.4-2.2 25.9-6.6 7.4-4.4 13.2-10.4 17.3-18 4.1-7.6 6.1-16.3 6.1-26.2 0-9.9-2-18.4-6.1-25.9-4.1-7.4-9.8-13.4-17.3-17.8s-15.9-6.6-25.4-6.6c-9.5 0-17.4 2.1-24.9 6.3-7.5 4.2-13.2 10.2-17.3 17.8-4.1 7.6-6.1 16.3-6.1 26.2 0 9.9 2 18.5 6.1 26.2 4.1 7.6 9.7 13.6 17 18 7.3 4.4 15.5 6.6 24.6 6.6h.1Z"/></svg>