<svg xmlns="http://www.w3.org/2000/svg" fill="none" viewBox="0 0 120 120"><path fill="url(#a)" d="M74.648 25.735a38.702 38.702 0 0 0-15.1-3.04c-5.36 0-10.46 1.08-15.1 3.04l13.87-24.03c.54-.94 1.9-.94 2.44 0l13.88 24.03h.01Z"/><path fill="url(#b)" d="M40.758 27.535c-9.14 5.06-16.01 13.7-18.74 24.03l-10.31-26.27c-.4-1.01.45-2.07 1.52-1.91l27.53 4.15Z"/><path fill="url(#c)" d="m28.998 85.455-28-8.64c-1.04-.32-1.34-1.65-.55-2.38l20.8-19.3a39.3 39.3 0 0 0-.52 6.37c0 9.04 3.09 17.36 8.27 23.95Z"/><path fill="url(#d)" d="m58.968 100.315-24.55 16.73c-.9.61-2.12.03-2.2-1.06l-2.19-29.29c7 8.2 17.36 13.44 28.94 13.61v.01Z"/><path fill="url(#e)" d="m88.978 86.815-2.18 29.14a1.41 1.41 0 0 1-2.2 1.06l-24.5-16.7c11.55-.16 21.88-5.36 28.88-13.5Z"/><path fill="url(#f)" d="m118.078 76.725-27.88 8.6a38.622 38.622 0 0 0 8.17-23.82c0-2.2-.19-4.36-.54-6.46l20.79 19.29c.8.74.49 2.07-.54 2.38v.01Z"/><path fill="url(#g)" d="m107.388 25.345-10.3 26.26c-2.72-10.32-9.57-18.95-18.68-24.03l27.46-4.14c1.07-.16 1.92.9 1.52 1.91Z"/><path fill="url(#h)" d="M59.548 108.695c-5.73 0-10.37 4.64-10.37 10.37h20.75c0-5.73-4.64-10.37-10.37-10.37h-.01Z"/><path fill="url(#i)" d="M97.468 91.705c-3.57 4.48-2.84 11.01 1.64 14.58l12.93-16.22c-4.48-3.57-11.01-2.84-14.58 1.64h.01Z"/><path fill="url(#j)" d="M105.968 51.595c1.27 5.59 6.84 9.08 12.42 7.8l-4.62-20.23c-5.59 1.27-9.08 6.84-7.8 12.42v.01Z"/><path fill="url(#k)" d="M80.518 19.865c5.16 2.49 11.36.32 13.85-4.85l-18.69-9c-2.49 5.16-.32 11.36 4.85 13.85h-.01Z"/><path fill="url(#l)" d="M38.108 19.865c5.16-2.49 7.33-8.69 4.84-13.85l-18.69 9c2.49 5.16 8.69 7.33 13.85 4.84v.01Z"/><path fill="url(#m)" d="M13.398 51.595c1.27-5.59-2.22-11.15-7.81-12.42l-4.61 20.23c5.59 1.27 11.15-2.22 12.42-7.81Z"/><path fill="url(#n)" d="m8.498 90.065 12.94 16.22c4.48-3.57 5.21-10.1 1.64-14.58-3.57-4.48-10.1-5.21-14.58-1.64Z"/><defs><linearGradient id="a" x1="41.878" x2="74.648" y1="13.365" y2="13.365" gradientUnits="userSpaceOnUse"><stop stop-color="#E35930"/><stop offset="1" stop-color="#E84125"/></linearGradient><linearGradient id="b" x1="9.618" x2="40.758" y1="37.465" y2="37.465" gradientUnits="userSpaceOnUse"><stop stop-color="#E35930"/><stop offset="1" stop-color="#E84125"/></linearGradient><linearGradient id="c" x1="-.922" x2="28.998" y1="70.295" y2="70.295" gradientUnits="userSpaceOnUse"><stop stop-color="#E35930"/><stop offset="1" stop-color="#E84125"/></linearGradient><linearGradient id="d" x1="29.478" x2="58.968" y1="101.995" y2="101.995" gradientUnits="userSpaceOnUse"><stop stop-color="#E35930"/><stop offset="1" stop-color="#E84125"/></linearGradient><linearGradient id="e" x1="59.098" x2="88.978" y1="102.035" y2="102.035" gradientUnits="userSpaceOnUse"><stop stop-color="#E35930"/><stop offset="1" stop-color="#E84125"/></linearGradient><linearGradient id="f" x1="88.368" x2="119.068" y1="70.185" y2="70.185" gradientUnits="userSpaceOnUse"><stop stop-color="#E35930"/><stop offset="1" stop-color="#E84125"/></linearGradient><linearGradient id="g" x1="75.948" x2="107.488" y1="37.505" y2="37.505" gradientUnits="userSpaceOnUse"><stop stop-color="#E35930"/><stop offset="1" stop-color="#E84125"/></linearGradient><linearGradient id="h" x1="64.122" x2="56.342" y1="109.741" y2="123.217" gradientUnits="userSpaceOnUse"><stop stop-color="#E35930"/><stop offset="1" stop-color="#E84125"/></linearGradient><linearGradient id="i" x1="101.157" x2="106.842" y1="88.598" y2="103.082" gradientUnits="userSpaceOnUse"><stop stop-color="#E35930"/><stop offset="1" stop-color="#E84125"/></linearGradient><linearGradient id="j" x1="105.947" x2="120.816" y1="46.857" y2="51.443" gradientUnits="userSpaceOnUse"><stop stop-color="#E35930"/><stop offset="1" stop-color="#E84125"/></linearGradient><linearGradient id="k" x1="76.837" x2="89.692" y1="16.941" y2="8.175" gradientUnits="userSpaceOnUse"><stop stop-color="#E35930"/><stop offset="1" stop-color="#E84125"/></linearGradient><linearGradient id="l" x1="33.732" x2="34.894" y1="20.983" y2="5.466" gradientUnits="userSpaceOnUse"><stop stop-color="#E35930"/><stop offset="1" stop-color="#E84125"/></linearGradient><linearGradient id="m" x1="11.661" x2=".254" y1="55.803" y2="45.221" gradientUnits="userSpaceOnUse"><stop stop-color="#E35930"/><stop offset="1" stop-color="#E84125"/></linearGradient><linearGradient id="n" x1="25.396" x2="10.011" y1="95.764" y2="98.086" gradientUnits="userSpaceOnUse"><stop stop-color="#E35930"/><stop offset="1" stop-color="#E84125"/></linearGradient></defs></svg>